<?xml version="1.0" encoding="UTF-8"?>
<svg id="Text" xmlns="http://www.w3.org/2000/svg" version="1.1" viewBox="0 0 163.38 71.81">
  <!-- Generator: Adobe Illustrator 29.4.0, SVG Export Plug-In . SVG Version: 2.1.0 Build 152)  -->
  <defs>
    <style>
      .st0 {
        font-family: MuseoSansRounded-500, 'Museo Sans Rounded';
      }

      .st0, .st1 {
        font-size: 27.44px;
      }

      .st0, .st1, .st2 {
        fill: #8c836c;
      }

      .st3 {
        display: none;
        fill: #a38f83;
        font-family: PlayfairDisplay-Bold, 'PlayfairDisplay Bold';
        font-size: 291px;
        font-weight: 700;
        letter-spacing: .34em;
      }

      .st1 {
        font-family: MuseoSansRounded-700, 'Museo Sans Rounded';
      }
    </style>
  </defs>
  <text class="st3" transform="translate(-797.03 360.8) rotate(-180) scale(1 -1)"><tspan x="0" y="0">D</tspan></text>
  <g>
    <path class="st2" d="M58.1,61.85c-.14-.08-.31-.11-.47-.07-2.64.58-5.37.77-8.12.53-.18-.02-.35-.03-.53-.05-5.73-.62-11.27-3.22-15.55-7.19-.02-.02-.03-.05-.05-.07-.13-.11-.25-.22-.38-.34-.2-.19-.4-.39-.59-.59-.74-.8-1.3-1.66-1.65-2.57-.53-1.34-.92-2.67-.01-4.12,1.87-2.5,5.48-2.62,8.19-1.4.1.05.25.04.35-.02.35-.2.54-1.35.54-1.36.06-.55-.05-1.12-.31-1.64-.11-.22-.26-.4-.41-.58-.14-.17-.28-.33-.34-.5-.15-.4-.13-.9-.1-1.43.02-.46.04-.94-.05-1.39-.18-.84-.56-1.55-1.09-2.05-1.32-1.22-3.16-.85-4.34-.16-.28.16-.62.18-.97.19-.4.01-.86.03-1.29.28-1.85,1.08-2.3,3.96-2.39,4.82-.2,1.89.28,4,1.27,5.53-.47,1.15-.31,2.25,0,3.25-3.19-4.5-4.93-9.85-4.93-15.17,0-1.18.09-2.32.27-3.4,0-.03,0-.06,0-.09.35-1.42.87-2.31,1.83-3.15.94-.81,2.05-1.49,3.31-2.01,1.68-.7,3.52-1.04,5.3-.98h0c.58.02,1.37.05,1.84-.51.24-.28.32-.64.36-.92.23-1.45-.19-2.99-1.11-4.12-.06-.07-.12-.15-.19-.22-.23-.27-.45-.52-.52-.8-.07-.25-.03-.54.01-.84l.03-.2c.35-3.01-1.65-6.22-4.65-7.47-2.74-1.14-6.15-.75-8.91,1.02-.49.31-1.03.43-1.59.56-.34.08-.7.15-1.05.28-.87.3-1.63.61-2.25.9-1.82.87-3.1,2.29-3.52,3.9-.06.25-.12.58.04.89.22.42.7.52,1.05.59,1.49.3,2.95,1.14,4.23,2.43,1.28,1.29,2.23,2.88,2.91,4.11.98,1.77,2.11,4.12,2.15,6.57,0,.02,0,.04.01.06-.17,1.08-.27,2.22-.27,3.4,0,2.96.52,5.92,1.52,8.75-3.35-1.13-6.41-3.21-8.69-5.91-.57-2.41.18-4.46,2.44-6.64.05-.05.15-.14.19-.3.04-.2-.06-.37-.09-.43-.39-.65-1.02-1.15-1.77-1.42-.39-.14-.78-.2-1.18-.19-.12,0-.24.02-.36.04-.17.02-.3.04-.42,0-.11-.03-.25-.12-.38-.2-.12-.08-.24-.15-.36-.21-.61-.28-1.28-.46-1.97-.55-.02,0-.05,0-.07,0-1.35-.15-2.74.11-3.92.72-.52.27-.93.56-1.24.9-.42.44-.73,1.01-.94,1.7-.3.99-.3,2.11-.02,3.23.1.4.27.77.43,1.13.18.39.35.76.42,1.15.1.51,0,1.02-.1,1.56-.1.53-.21,1.08-.12,1.66.13.92.61,1.78,1.31,2.35.05.04.12.07.19.08.03,0,.07,0,.1,0,.1-.02.19-.08.24-.17.53-.93,1.63-2.61,3.04-3.41,1.28-.73,2.79-.88,4.14-.43,2.47,2.89,5.81,5.09,9.45,6.2.94,2.42,2.23,4.72,3.84,6.82.64.83,1.33,1.62,2.05,2.37.2.21.4.42.62.63,4.44,4.31,10.31,7.13,16.39,7.79.18.02.36.04.55.05,2.9.25,5.8.04,8.58-.6.27-.06.32-.42.08-.56,0,0,0,0,0,0ZM37.09,24.61c-.03.19-.08.42-.2.57-.25.3-.8.28-1.28.26h0c-1.89-.06-3.82.29-5.6,1.03-1.31.54-2.47,1.25-3.47,2.1,2.25-3.18,6.68-4.81,10.55-5.29.06.44.07.89,0,1.33ZM35.96,20.84c.06.07.12.14.18.21.11.13.2.27.3.41-.43.05-1.53.24-2.48.87-.05.04-.07.11-.03.16.02.03.05.05.09.05.03,0,.05,0,.08-.02.99-.65,2.18-.81,2.48-.84.21.38.37.8.47,1.23-4.01.42-8.78,2.04-11.15,5.39,1.65-3.83,5.89-6.51,9.7-7.94.12.17.25.33.38.48ZM35.33,17.77c-.46.12-1.47.44-2.3,1.14-.05.04-.06.12-.01.17.02.02.05.04.08.04.03,0,.06,0,.09-.03.76-.64,1.69-.95,2.15-1.07,0,.15-.01.29-.03.44l-.02.19c-.04.34-.1.73,0,1.12,0,.03.03.06.04.1-3.14,1.14-6.57,3.11-8.72,5.87,1.69-4.01,4.71-7.5,8.42-9.76.2.59.3,1.2.31,1.81ZM31.8,12.08c.67.38,1.28.87,1.79,1.44-.48.25-1.8,1-2.71,2.26-.04.05-.03.13.03.16.02.01.04.02.06.02.04,0,.08-.01.11-.05.91-1.26,2.28-2.01,2.68-2.22.43.51.78,1.08,1.05,1.68-4.15,2.44-7.48,6.35-9.16,10.85.66-5.16,2.28-10.95,6.16-14.14ZM19.86,21.14c-1.38-1.39-2.97-2.3-4.59-2.62-.22-.04-.49-.1-.56-.23-.05-.09-.01-.26.02-.38.16-.62.48-1.2.91-1.74.36.59,1.1,1.62,2.18,2.36.02.01.03.02.05.02.04,0,.08-.01.11-.05.04-.05.02-.13-.03-.16-1.09-.74-1.82-1.81-2.16-2.36.33-.36.72-.69,1.16-.98,2.25,2.71,4.05,5.89,5.24,9.23-.62-1.02-1.39-2.12-2.34-3.09ZM17.42,14.71c.14-.08.29-.16.44-.23.47-.23,1.04-.46,1.67-.69.02.62.14,2.03.82,3.33.02.04.05.06.09.06.02,0,.05,0,.07-.01.06-.03.08-.1.05-.16-.68-1.3-.78-2.75-.79-3.3.09-.03.18-.07.27-.1.32-.11.63-.18.97-.26.15-.03.3-.07.45-.1.25,3.87.72,7.81,1.63,11.61-1.23-3.67-3.19-7.21-5.67-10.14ZM24.13,26.46c-1.17-4.36-1.75-8.94-2.02-13.42.24-.09.48-.2.72-.35.35-.23.72-.43,1.09-.6-.23.65-.57,1.88-.45,3.21,0,.06.05.1.1.11,0,0,.02,0,.02,0,.07,0,.11-.06.11-.13-.13-1.44.32-2.8.52-3.33.52-.23,1.05-.41,1.59-.54-1.36,4.81-1.95,10.01-1.68,15.05ZM26.6,11.25c.79-.12,1.57-.15,2.34-.06-.39.44-1.3,1.58-1.69,3.03-.02.06.02.13.08.14,0,0,.01,0,.02,0,.06,0,.11-.03.13-.09.42-1.55,1.48-2.76,1.75-3.06.64.09,1.27.26,1.86.5.03.01.06.03.09.04-4.18,3.43-5.75,9.81-6.33,15.24-.34-5.28.29-10.72,1.76-15.75ZM12.63,29.39c-.04.32-.22,2.02.4,3.66.02.04.05.07.1.07.02,0,.04,0,.06,0,.06-.02.09-.09.07-.15-.61-1.59-.42-3.29-.39-3.55.04,0,.09,0,.14.01.46.05.9.16,1.32.31-.54,2.16-.55,4.58.3,6.63-1.61-2-2.73-4.49-3.55-6.87.52-.1,1.04-.14,1.57-.1ZM8.37,30.81c.2-.21.45-.41.75-.59.2.63.7,1.88,1.65,2.89.02.02.05.03.07.04.03,0,.07,0,.09-.03.05-.04.05-.12,0-.17-.93-.99-1.42-2.25-1.61-2.85.03-.02.06-.03.09-.05.33-.17.68-.31,1.04-.41.99,2.83,2.42,5.78,4.53,7.94-2.68-1.59-4.99-4.01-6.92-6.39.09-.14.19-.26.29-.38ZM7.43,33.16c.45.54,1.32,1.42,2.47,1.98.01,0,.03,0,.04.01.05,0,.1-.02.12-.07.03-.06,0-.13-.05-.16-1.24-.6-2.16-1.62-2.54-2.1.03-.21.07-.41.13-.61.06-.2.14-.39.22-.57,1.83,2.2,3.95,4.35,6.38,5.91-2.34-.63-4.59-1.61-6.68-2.83-.1-.54-.13-1.06-.09-1.57ZM12.05,38.99c-1.32.75-2.37,2.13-3.07,3.29-.4-.44-.67-1.01-.75-1.61-.05-.38,0-.77.07-1.17,1.7-.97,3.74-1.34,5.7-1.2-.67.11-1.33.34-1.95.69ZM8.42,38.81c.08-.45.12-.92.03-1.41-.03-.16-.08-.31-.13-.47.58.26,1.44.58,2.41.69.13.01.27.02.41.03.07,0,.12-.05.12-.11,0-.06-.04-.13-.11-.12-1.21-.05-2.32-.5-2.94-.8-.07-.18-.15-.35-.23-.53-.16-.34-.3-.66-.39-1,2.32,1.31,4.8,2.34,7.39,2.95.05.03.11.06.16.09-2.23-.42-4.64-.26-6.72.68ZM14.97,30.02s.05.03.08.05c.16.1.35.22.55.28.27.08.51.05.73.01.09-.01.18-.03.27-.03.12,0,.25.01.37.03-1.21,2.16-1.91,4.86-1.13,7.22-1.4-2.17-1.48-5.07-.87-7.56ZM16.19,36.12c-.11-1.91.53-3.91,1.48-5.57.5.21.93.55,1.21.98-1.54,1.51-2.43,3.01-2.69,4.59ZM39.13,44.33c0,.07,0,.14,0,.22-.02.09-.11.45-.19.68-.8-.33-1.66-.55-2.53-.64-1.43-.15-2.89.03-4.14.65,1.88-1.37,4.49-1.55,6.87-.91ZM38.57,42.85c.12.15.24.29.32.44.11.21.18.43.22.65-2.81-.77-6-.48-8.04,1.46,1.41-2.28,4.67-2.94,7.34-2.75.05.07.11.13.16.2ZM38.14,42.23c-2.53-.18-5.52.35-7.18,2.18,1.31-2.28,4.43-3.5,6.99-3.95-.01.25-.02.51-.01.77-.52-.02-1.49.02-2.42.41-.06.03-.09.09-.06.15.02.04.05.07.1.07.02,0,.04,0,.06,0,.9-.38,1.86-.41,2.35-.39.02.23.06.46.14.68.01.03.03.06.04.09ZM37.04,37.55c.28.26.48.57.62.88-.51.12-1.42.41-2.19,1.02-.05.04-.06.11-.02.17.02.03.05.04.08.04.03,0,.06,0,.09-.02.75-.59,1.65-.87,2.14-.98.08.2.14.4.17.57.05.22.06.45.05.7-2.04.3-4.52,1.11-6.23,2.54.75-1.32,1.71-2.52,2.91-3.51.41-.34,1.52-1.23,2.22-1.54.06.04.12.09.17.14ZM29.36,44.7c-.17-.82-.21-1.66-.13-2.46.08-.77.48-3.37,2.05-4.28.26-.15.57-.17.92-.18-1.48,2.01-2.59,4.43-2.84,6.93ZM33.14,37.65c.13-.04.27-.09.4-.17.37-.21.81-.39,1.27-.48-.45.26-1.01.64-1.47,1.18-.04.05-.04.12.01.17.02.02.04.03.06.03.04,0,.08,0,.1-.04.63-.73,1.48-1.18,1.93-1.39.28,0,.56.05.83.14-.77.3-1.68,1.11-2.11,1.45-1.86,1.5-3.17,3.47-4.04,5.66.39-2.38,1.55-4.68,3.02-6.55Z"/>
    <text class="st0" transform="translate(47.25 57.8)"><tspan x="0" y="0">Enza</tspan></text>
    <text class="st1" transform="translate(45 31.46)"><tspan x="0" y="0">Hypnose</tspan></text>
  </g>
</svg>