<?xml version="1.0" encoding="UTF-8"?>
<svg id="Text" xmlns="http://www.w3.org/2000/svg" version="1.1" viewBox="0 0 163.82 69.83">
  <!-- Generator: Adobe Illustrator 29.4.0, SVG Export Plug-In . SVG Version: 2.1.0 Build 152)  -->
  <defs>
    <style>
      .st0, .st1, .st2 {
        fill: #89715c;
      }

      .st3 {
        display: none;
        fill: #a38f83;
        font-family: PlayfairDisplay-Bold, 'PlayfairDisplay Bold';
        font-size: 291px;
        font-weight: 700;
        letter-spacing: .34em;
      }

      .st1 {
        font-family: MuseoSansRounded-500, 'Museo Sans Rounded';
      }

      .st1, .st2 {
        font-size: 27.2px;
      }

      .st2 {
        font-family: MuseoSansRounded-700, 'Museo Sans Rounded';
      }
    </style>
  </defs>
  <text class="st3" transform="translate(-825.51 400.21) rotate(-180) scale(1 -1)"><tspan x="0" y="0">D</tspan></text>
  <g>
    <path class="st0" d="M57.88,62.08c-.14-.08-.31-.1-.47-.07-2.62.58-5.33.76-8.05.53-.18-.02-.35-.03-.53-.05-5.68-.61-11.18-3.19-15.42-7.13-.02-.02-.03-.05-.05-.07-.13-.11-.25-.22-.37-.33-.2-.19-.39-.39-.59-.59-.73-.8-1.28-1.65-1.64-2.54-.52-1.33-.91-2.64-.01-4.08,1.86-2.47,5.43-2.6,8.12-1.39.1.05.25.04.35-.02.34-.2.54-1.34.54-1.35.06-.54-.05-1.11-.31-1.63-.11-.22-.26-.4-.41-.57-.14-.17-.28-.33-.34-.5-.15-.4-.13-.89-.1-1.42.02-.46.04-.93-.05-1.38-.18-.84-.55-1.54-1.08-2.03-1.31-1.21-3.13-.84-4.3-.16-.28.16-.61.17-.96.19-.4.01-.85.03-1.28.28-1.84,1.07-2.28,3.93-2.37,4.78-.2,1.87.28,3.97,1.26,5.49-.47,1.14-.31,2.23,0,3.22-3.16-4.46-4.89-9.76-4.89-15.04,0-1.17.09-2.3.27-3.37,0-.03,0-.06,0-.08.35-1.41.86-2.29,1.82-3.12.93-.81,2.04-1.48,3.28-1.99,1.67-.69,3.49-1.03,5.26-.97h0c.57.02,1.36.05,1.83-.51.24-.28.32-.63.36-.91.22-1.43-.19-2.96-1.1-4.09-.06-.07-.12-.15-.19-.22-.23-.26-.44-.51-.52-.8-.07-.25-.03-.53.01-.84l.02-.2c.35-2.98-1.64-6.16-4.61-7.4-2.71-1.13-6.09-.74-8.83,1.02-.49.31-1.02.43-1.58.55-.34.07-.69.15-1.04.28-.86.3-1.62.6-2.23.9-1.8.86-3.07,2.27-3.49,3.86-.06.25-.12.58.04.88.22.42.69.52,1.04.59,1.47.29,2.92,1.13,4.19,2.41,1.27,1.28,2.21,2.85,2.89,4.08.97,1.76,2.09,4.09,2.14,6.51,0,.02,0,.04.01.06-.17,1.07-.26,2.2-.26,3.37,0,2.93.52,5.87,1.51,8.67-3.32-1.12-6.36-3.18-8.61-5.86-.57-2.39.18-4.43,2.42-6.58.05-.05.15-.14.18-.3.04-.2-.06-.36-.09-.42-.39-.64-1.01-1.14-1.76-1.41-.38-.13-.77-.2-1.17-.19-.12,0-.24.02-.36.04-.17.02-.3.04-.42,0-.11-.03-.24-.11-.38-.2-.12-.07-.24-.15-.36-.2-.61-.28-1.27-.46-1.95-.54-.02,0-.05,0-.07,0-1.34-.14-2.71.11-3.88.71-.51.26-.92.56-1.23.89-.41.44-.73,1-.93,1.68-.29.98-.3,2.09-.02,3.2.1.4.27.76.43,1.12.18.39.34.76.42,1.14.1.51,0,1.01-.1,1.55-.1.53-.21,1.07-.12,1.65.13.91.6,1.76,1.29,2.33.05.04.12.07.19.08.03,0,.07,0,.1,0,.1-.02.19-.08.24-.17.53-.92,1.62-2.59,3.01-3.38,1.27-.72,2.77-.88,4.11-.43,2.45,2.87,5.76,5.04,9.37,6.14.93,2.39,2.21,4.68,3.81,6.76.63.82,1.32,1.61,2.04,2.35.19.21.4.42.62.62,4.41,4.27,10.23,7.07,16.25,7.72.18.02.36.04.54.05,2.88.25,5.75.04,8.5-.6.27-.06.32-.42.08-.56,0,0,0,0,0,0ZM37.05,25.16c-.03.19-.08.42-.2.56-.25.29-.79.28-1.27.26h0c-1.87-.06-3.79.29-5.55,1.02-1.3.54-2.45,1.24-3.44,2.09,2.23-3.16,6.62-4.76,10.46-5.25.06.44.07.88,0,1.32ZM35.93,21.42c.06.07.12.14.17.21.11.13.2.27.29.41-.43.05-1.51.24-2.46.86-.05.04-.07.11-.03.16.02.03.05.05.09.05.03,0,.05,0,.08-.02.98-.65,2.16-.81,2.46-.84.21.38.37.79.47,1.22-3.98.41-8.71,2.02-11.05,5.34,1.64-3.8,5.84-6.45,9.62-7.87.12.17.25.33.38.48ZM35.31,18.38c-.46.12-1.45.43-2.28,1.13-.05.04-.06.12-.01.16.02.02.05.04.08.04.03,0,.06,0,.09-.03.75-.63,1.67-.94,2.13-1.06,0,.15-.01.29-.03.44l-.02.19c-.04.34-.1.73,0,1.11,0,.03.02.06.04.09-3.11,1.13-6.52,3.09-8.64,5.82,1.68-3.97,4.67-7.43,8.34-9.68.2.58.3,1.19.31,1.79ZM31.8,12.73c.67.38,1.27.86,1.77,1.43-.48.25-1.78.99-2.69,2.25-.04.05-.03.13.03.16.02.01.04.02.06.02.04,0,.08-.01.11-.05.91-1.25,2.26-2,2.66-2.2.43.51.78,1.07,1.04,1.66-4.12,2.42-7.41,6.29-9.08,10.75.65-5.12,2.26-10.86,6.11-14.02ZM19.96,21.72c-1.37-1.38-2.94-2.28-4.55-2.6-.22-.04-.49-.1-.56-.22-.05-.09-.01-.26.02-.38.16-.61.47-1.19.91-1.72.36.59,1.09,1.61,2.16,2.34.02.01.03.02.05.02.04,0,.08-.01.11-.05.04-.05.02-.13-.03-.16-1.08-.73-1.81-1.79-2.14-2.34.32-.36.71-.68,1.15-.97,2.23,2.69,4.01,5.84,5.2,9.15-.62-1.01-1.38-2.11-2.32-3.06ZM17.55,15.34c.14-.08.28-.16.43-.23.47-.22,1.03-.45,1.66-.69.02.61.14,2.01.81,3.3.02.04.05.06.09.06.02,0,.05,0,.07-.01.06-.03.08-.1.05-.16-.67-1.29-.77-2.73-.79-3.27.09-.03.18-.06.27-.1.31-.11.63-.18.96-.25.15-.03.3-.07.45-.1.25,3.83.72,7.74,1.61,11.51-1.22-3.64-3.16-7.14-5.62-10.06ZM24.2,26.99c-1.16-4.33-1.73-8.87-2-13.3.24-.09.48-.19.71-.34.35-.22.71-.42,1.08-.6-.23.64-.57,1.87-.45,3.18,0,.06.05.1.1.11,0,0,.02,0,.02,0,.06,0,.11-.06.11-.13-.13-1.43.32-2.77.52-3.3.51-.22,1.04-.4,1.57-.53-1.35,4.77-1.94,9.92-1.66,14.92ZM26.65,11.91c.78-.12,1.56-.15,2.32-.06-.39.44-1.29,1.56-1.68,3-.02.06.02.13.08.14,0,0,.01,0,.02,0,.06,0,.11-.03.13-.09.42-1.54,1.47-2.74,1.74-3.03.64.09,1.26.25,1.84.5.03.01.06.03.08.04-4.14,3.4-5.7,9.72-6.28,15.11-.33-5.23.29-10.63,1.75-15.62ZM12.8,29.89c-.04.32-.22,2.01.4,3.63.02.04.05.07.1.07.02,0,.04,0,.05,0,.06-.02.09-.09.07-.15-.61-1.57-.42-3.26-.39-3.52.04,0,.09,0,.13.01.45.05.89.16,1.3.31-.54,2.14-.55,4.54.3,6.57-1.59-1.98-2.71-4.45-3.52-6.81.51-.1,1.03-.13,1.55-.1ZM8.57,31.31c.2-.21.44-.4.74-.58.2.62.69,1.86,1.64,2.87.02.02.05.03.07.04.03,0,.07,0,.09-.03.05-.04.05-.12,0-.17-.93-.99-1.41-2.24-1.6-2.82.03-.02.06-.03.09-.05.33-.17.67-.3,1.03-.41.98,2.8,2.4,5.73,4.49,7.87-2.65-1.58-4.94-3.98-6.86-6.33.09-.13.19-.26.29-.37ZM7.64,33.64c.45.53,1.31,1.41,2.45,1.96.01,0,.03,0,.04.01.05,0,.1-.02.12-.07.03-.06,0-.13-.05-.16-1.23-.59-2.14-1.61-2.52-2.08.03-.2.07-.41.13-.6.06-.2.14-.39.22-.56,1.81,2.18,3.92,4.32,6.33,5.86-2.32-.63-4.55-1.6-6.62-2.81-.1-.53-.13-1.05-.09-1.56ZM12.23,39.41c-1.31.74-2.35,2.12-3.05,3.26-.39-.44-.66-1-.74-1.6-.05-.38,0-.76.07-1.16,1.68-.96,3.71-1.32,5.65-1.19-.67.11-1.32.34-1.93.69ZM8.63,39.24c.07-.45.12-.91.02-1.4-.03-.16-.08-.31-.13-.46.57.26,1.43.58,2.39.68.13.01.27.02.4.03.06,0,.12-.05.12-.11,0-.06-.03-.12-.11-.12-1.2-.05-2.3-.5-2.91-.79-.07-.18-.15-.35-.23-.52-.15-.34-.3-.66-.38-.99,2.3,1.3,4.76,2.32,7.33,2.93.05.03.11.06.16.09-2.21-.42-4.6-.26-6.66.67ZM15.12,30.53s.05.03.08.04c.16.1.35.22.55.28.27.08.51.04.72.01.09-.01.18-.03.27-.03.12,0,.25.01.37.03-1.2,2.14-1.89,4.82-1.12,7.16-1.39-2.15-1.47-5.03-.86-7.49ZM16.33,36.57c-.11-1.9.53-3.88,1.46-5.52.49.21.92.55,1.2.97-1.53,1.5-2.41,2.98-2.67,4.55ZM39.07,44.7c0,.07,0,.14,0,.21-.02.09-.11.44-.19.68-.79-.32-1.65-.54-2.51-.64-1.42-.15-2.86.03-4.11.65,1.87-1.36,4.45-1.54,6.81-.9ZM38.51,43.24c.12.15.24.29.31.43.1.21.18.43.21.64-2.79-.76-5.95-.48-7.97,1.45,1.4-2.26,4.63-2.91,7.28-2.72.05.07.11.13.16.2ZM38.09,42.63c-2.51-.18-5.47.34-7.12,2.16,1.3-2.26,4.4-3.47,6.93-3.91-.01.25-.02.51-.01.76-.51-.02-1.48.02-2.4.41-.06.03-.09.09-.06.15.02.04.05.07.1.07.02,0,.04,0,.06,0,.89-.38,1.84-.4,2.33-.39.02.23.06.46.14.67.01.03.03.06.04.09ZM37,37.99c.28.26.47.57.61.87-.51.12-1.4.41-2.17,1.01-.05.04-.06.11-.02.16.02.03.05.04.08.04.03,0,.06,0,.08-.02.75-.58,1.64-.86,2.12-.98.08.2.14.4.17.57.05.21.06.45.05.7-2.03.3-4.48,1.1-6.18,2.51.75-1.31,1.69-2.5,2.88-3.48.4-.34,1.5-1.22,2.2-1.53.06.04.12.09.17.14ZM29.38,45.07c-.16-.81-.21-1.65-.13-2.44.08-.77.48-3.34,2.03-4.25.26-.15.56-.17.91-.18-1.47,2-2.57,4.4-2.81,6.87ZM33.13,38.09c.13-.04.26-.09.39-.16.36-.21.8-.39,1.26-.48-.45.26-1,.64-1.46,1.16-.04.05-.04.12.01.16.02.02.04.03.06.03.04,0,.08,0,.1-.04.63-.73,1.47-1.17,1.91-1.38.28,0,.56.05.82.14-.76.3-1.67,1.1-2.09,1.44-1.84,1.49-3.14,3.44-4,5.61.39-2.36,1.54-4.64,2.99-6.49Z"/>
    <text class="st2" transform="translate(47.32 29.61)"><tspan x="0" y="0">Enza</tspan></text>
    <text class="st1" transform="translate(47.4 53.33)"><tspan x="0" y="0">Hypnose</tspan></text>
  </g>
</svg>