<?xml version="1.0" encoding="UTF-8"?>
<svg id="Layer_1" data-name="Layer 1" xmlns="http://www.w3.org/2000/svg" xmlns:xlink="http://www.w3.org/1999/xlink" viewBox="0 0 960 960">
  <defs>
    <style>
      .cls-1, .cls-2, .cls-3, .cls-4 {
        stroke-width: 0px;
      }

      .cls-2 {
        fill: #fff;
      }

      .cls-3 {
        fill: url(#radial-gradient-2);
      }

      .cls-4 {
        fill: url(#radial-gradient);
      }
    </style>
    <radialGradient id="radial-gradient" cx="9.81" cy="938.02" fx="9.81" fy="938.02" r="6.75" gradientTransform="translate(5.66 17430.67) scale(18.12 -18.12)" gradientUnits="userSpaceOnUse">
      <stop offset="0" stop-color="#fc0"/>
      <stop offset=".09" stop-color="#ffc800"/>
      <stop offset=".17" stop-color="#ffbd00"/>
      <stop offset=".25" stop-color="#ffab00"/>
      <stop offset=".33" stop-color="#ff9100"/>
      <stop offset=".4" stop-color="#ff7000"/>
      <stop offset=".48" stop-color="#ff4700"/>
      <stop offset=".55" stop-color="#ff1800"/>
      <stop offset=".58" stop-color="red"/>
      <stop offset="1" stop-color="red"/>
    </radialGradient>
    <radialGradient id="radial-gradient-2" cx="8.02" cy="929.68" fx="8.02" fy="929.68" r="8.31" gradientTransform="translate(1.64 12979.88) scale(13.48 -13.48)" gradientUnits="userSpaceOnUse">
      <stop offset="0" stop-color="#00b4e6"/>
      <stop offset=".2" stop-color="#00b0e3"/>
      <stop offset=".39" stop-color="#01a5db"/>
      <stop offset=".57" stop-color="#0292cd"/>
      <stop offset=".75" stop-color="#0377ba"/>
      <stop offset=".93" stop-color="#0455a1"/>
      <stop offset="1" stop-color="#054696"/>
    </radialGradient>
  </defs>
  <path class="cls-1" d="M923.1,652.93H36.15c-7.05,0-12.65-5.61-12.65-12.66v-320.45c0-7.05,5.61-12.66,12.65-12.66h886.8c7.05,0,12.66,5.61,12.66,12.66v320.45c.16,7.05-5.61,12.66-12.5,12.66Z"/>
  <path class="cls-2" d="M309.64,541.97c0,3.33-2.4,7.46-5.27,9.04l-102.72,58.87c-2.88,1.75-7.67,1.75-10.54,0l-102.72-58.87c-2.88-1.75-5.27-5.71-5.27-9.04v-117.9c0-3.33,2.4-7.46,5.27-9.04l102.72-58.87c2.88-1.75,7.67-1.75,10.54,0l102.72,58.87c2.88,1.75,5.27,5.71,5.27,9.04v117.9Z"/>
  <g>
    <path class="cls-2" d="M875.03,430.47h-92.28v21.49h33v92.25h26.12v-92.25h33.16v-21.49Z"/>
    <path class="cls-2" d="M455.9,430.47h-92.28v21.49h33.16v92.25h26.12v-92.25h33v-21.49Z"/>
    <path class="cls-2" d="M722.98,426.86c-29,0-45.18,18.2-45.18,44.4v72.95h25.79v-73.58c0-11.45,6.89-20.24,19.71-20.24s19.55,10.35,19.55,20.24v73.58h25.79v-72.95c0-26.2-16.66-44.4-45.66-44.4Z"/>
    <path class="cls-2" d="M625.41,430.47v113.74h25.95v-113.74h-25.95Z"/>
    <path class="cls-2" d="M537.93,475.65l.96,5.02,24.19,63.54h10.58l33-113.74h-25.47l-15.86,59.78-.8,6.43-1.28-6.43-21.15-59.78h-8.33l-20.99,59.78-1.28,6.43-.96-6.43-15.7-59.78h-25.47l33.01,113.74h10.57l24.19-63.54.8-5.02Z"/>
  </g>
  <g>
    <path class="cls-4" d="M244.08,480.81l-26.35,37.6-13.57-20.18,15.62-22.62c2.84-3.97,9.15-15.13,1.89-30.27-5.84-12.23-18.46-18.19-29.51-18.19s-23.2,5.5-29.51,18.19c-7.26,14.52-.95,25.99,1.74,29.81,0,0,8.68,12.38,15.94,22.78l11.84,16.51,17.67,26.14c.16.15,3,4.28,7.89,4.28s7.57-4.13,8.05-4.59l41.5-59.46h-23.2ZM192.17,481.73s-6.94-10.24-11.36-17.27c-4.89-7.64.63-18.95,11.36-18.95s16.25,11.31,11.36,18.95c-4.42,7.18-11.36,17.27-11.36,17.27Z"/>
    <path class="cls-3" d="M166.6,517.19l-26.04-35.31s-6.94-10.24-11.36-17.27c-4.89-7.64.63-18.95,11.36-18.95,1.42,0,2.68.15,3.79.46l9.15-16.2c-4.26-1.68-8.68-2.6-12.94-2.6-11.05,0-23.2,5.5-29.51,18.19-7.26,14.52-.95,25.99,1.74,29.81l45.45,65.27c.32.61,3.31,4.74,8.05,4.74s7.57-3.97,8.05-4.59l13.73-20.18-11.84-16.81-9.63,13.45Z"/>
  </g>
</svg>